<svg width="35" height="35" viewBox="0 0 35 35" fill="none" xmlns="http://www.w3.org/2000/svg">
<path d="M17.5 34C8.3873 34 1 26.6127 1 17.5C1 8.3873 8.3873 1 17.5 1C26.6127 1 34 8.3873 34 17.5C34 26.6127 26.6127 34 17.5 34Z" fill="#402218" stroke="#402218" stroke-width="2"/>
<g clip-path="url(#clip0_826_740)">
<path d="M25.25 16.1094H10.25C9.55977 16.1094 9 16.5992 9 17.2031V18.2969C9 18.9008 9.55977 19.3906 10.25 19.3906H25.25C25.9402 19.3906 26.5 18.9008 26.5 18.2969V17.2031C26.5 16.5992 25.9402 16.1094 25.25 16.1094Z" fill="white"/>
</g>
<defs>
<clipPath id="clip0_826_740">
<rect width="17.5" height="17.5" fill="white" transform="translate(9 9)"/>
</clipPath>
</defs>
</svg>
