<svg width="35" height="35" viewBox="0 0 35 35" fill="none" xmlns="http://www.w3.org/2000/svg">
<path d="M17.5 34C8.3873 34 1 26.6127 1 17.5C1 8.3873 8.3873 1 17.5 1C26.6127 1 34 8.3873 34 17.5C34 26.6127 26.6127 34 17.5 34Z" fill="#402218" stroke="#402218" stroke-width="2"/>
<g clip-path="url(#clip0_833_742)">
<path d="M25.25 16.1094H19.625V11.1875C19.625 10.5835 19.0652 10.0938 18.375 10.0938H17.125C16.4348 10.0938 15.875 10.5835 15.875 11.1875V16.1094H10.25C9.55977 16.1094 9 16.5992 9 17.2031V18.2969C9 18.9008 9.55977 19.3906 10.25 19.3906H15.875V24.3125C15.875 24.9165 16.4348 25.4062 17.125 25.4062H18.375C19.0652 25.4062 19.625 24.9165 19.625 24.3125V19.3906H25.25C25.9402 19.3906 26.5 18.9008 26.5 18.2969V17.2031C26.5 16.5992 25.9402 16.1094 25.25 16.1094Z" fill="white"/>
</g>
<defs>
<clipPath id="clip0_833_742">
<rect width="17.5" height="17.5" fill="white" transform="translate(9 9)"/>
</clipPath>
</defs>
</svg>
